<svg width="1088" height="892" viewBox="0 0 1088 892" fill="none" xmlns="http://www.w3.org/2000/svg">
<path d="M677.317 601.034C926.911 439.018 630.881 101.128 395.089 141.664C159.297 182.2 128.969 359.474 192.632 497.953C256.295 636.432 427.722 763.051 677.317 601.034Z" fill="#F1DDFE" fill-opacity="0.35"/>
<path d="M552.509 600.458C802.104 438.442 616.51 239.958 391.099 172.622C165.688 105.286 188.642 284.365 188.642 528.911C188.642 773.458 302.915 762.474 552.509 600.458Z" fill="#F1DDFE" fill-opacity="0.35"/>
<path d="M693.34 669.514C985.464 721.179 453.159 41.724 249.911 174.667C46.6635 307.609 -116.713 429.269 111.433 545.756C339.579 662.242 401.215 617.85 693.34 669.514Z" fill="#F1DDFE" fill-opacity="0.35"/>
</svg>
